<svg fill="#1e3f78" xmlns="http://www.w3.org/2000/svg" viewBox="0 0 256 256"><title>Swiftfleet</title><g transform="translate(-148.68 38.34) scale(3.5885)"><path fill="#1e3f78" d="M88.9424 27.056C92.0717 28.0788 96.9586 30.0467 96.9586 36.1564C96.9586 42.581 91.53 45.8867 82.3447 45.8867C78.3346 45.8867 74.7688 45.2606 70.1742 43.8761L69.0479 36.8292C73.9348 37.9881 78.0891 38.4781 81.1171 38.4781C85.1739 38.4781 86.6899 37.5875 86.6899 36.518C86.6899 34.7796 82.485 34.2857 76.1328 31.9251C73.9348 31.1239 69.0947 29.2067 69.0947 23.3575C69.0947 17.1973 74.4726 14.1211 83.2683 14.1211C86.7873 14.1211 91.1871 14.615 94.7022 15.6806V23.0425C91.2806 21.9692 87.5161 21.5219 84.5348 21.5219C80.6261 21.5219 79.4024 22.2803 79.4024 23.1281C79.4024 24.7343 83.7009 25.2748 88.9346 27.056H88.9424Z"/><rect x="59.48" y="4.09" width="24.08" height="6.69" rx="3.34" fill="#1e3f78"/></g></svg>