<svg xmlns="http://www.w3.org/2000/svg" viewBox="0 0 866 256"><title>Swiftfleet wordmark</title><path fill="#1E3F78" d="M99.97988997007798 185.6Q86.61995832945297 185.6 77.48806121836822 181.45334472656248Q68.35616410728345 177.306689453125 64.01154035831537 170.77333984375L84.81387460225885 155.706806640625Q88.88859929397086 160.37349609375 94.8981198557261 162.58683593749998Q100.90764041748132 164.80017578125 105.84102908935631 164.80017578125Q107.65438846435632 164.80017578125 109.13576801483839 164.480166015625Q110.61714756532048 164.16015625 111.67404746089636 163.45347167968748Q112.73094735647224 162.746787109375 113.40851365110049 161.8800927734375Q114.08607994572876 161.0133984375 114.3411540469758 159.813369140625Q114.9136473308152 157.12 112.56272071630444 155.759970703125Q111.24909359457953 155.03996093749998 108.16065013914215 154.01328613281248Q105.07220668370476 152.986611328125 100.04327802766115 151.67994140625Q93.66498434517698 149.946591796875 88.87778091232256 147.439912109375Q84.09057747946815 144.933232421875 81.19344371001225 141.626552734375Q78.32466550328445 138.1865625 77.25909462383798 133.8532470703125Q76.19352374439151 129.519931640625 77.33848955459356 124.13329101562499Q78.68750966399885 117.786650390625 82.67027471028996 112.7866650390625Q86.65303975658105 107.7866796875 92.48688123074311 104.24001953125Q98.32072270490518 100.693359375 105.10980794423037 98.800029296875Q111.89889318355554 96.90669921874999 118.67221349605555 96.90669921874999Q126.19217443355555 96.90669921874999 132.50623449512022 98.4400341796875Q138.82029455668493 99.973369140625 144.04327839148073 102.81337402343749Q149.26626222627652 105.65337890625 153.13200807692613 109.54671875L134.19788724938564 126.61322265625Q131.92901843824527 124.239873046875 128.77963938685954 122.1198681640625Q125.63026033547384 119.99986328125 122.03650770871069 118.6531982421875Q118.44275508194754 117.306533203125 115.13609492569753 117.306533203125Q113.10939570694754 117.306533203125 111.59084570709983 117.61320800781249Q110.07229570725212 117.91988281249999 108.9543996395075 118.5998974609375Q107.83650357176288 119.279912109375 107.14760161909479 120.1999365234375Q106.45869966642668 121.1199609375 106.20362556517964 122.319990234375Q105.92987875364821 123.73333984375 106.47964046449337 124.9733544921875Q107.02940217533855 126.21336914062499 108.57568040344626 127.09337890625Q109.9103085801524 127.84005859375 113.11424245823196 129.0133984375Q116.31817633631152 130.18673828125 122.43938383048012 132.00005859375Q129.33061579158147 134.08005859374998 134.22762540042964 136.76005371093748Q139.12463500927782 139.440048828125 141.66609361926342 143.0400390625Q143.5049617519569 145.680048828125 144.07643642014403 149.0133984375Q144.64791108833117 152.346748046875 143.82035200623542 156.240107421875Q142.0065429324768 164.773408203125 135.72085991262696 171.38671875Q129.43517689277712 178.000029296875 120.14750413455255 181.8000146484375Q110.85983137632797 185.6 99.97988997007798 185.6Z"/><path fill="#1E3F78" d="M165.440078125 184.0 155.87154168189133 98.66669921875 187.4501792987851 98.640029296875 190.14536408636852 150.320302734375 186.99005278642483 149.733642578125 210.97220485206046 109.5467578125H228.35868922706044L236.61117102890606 149.7603125L233.1281232930732 150.213642578125L257.65827019751634 98.66669921875H289.2312389475163L241.97310546875002 184.0H219.54670898437502L212.30830012305472 142.02638671875L213.43802203799842 142.106396484375L187.83980468750002 184.0Z"/><path fill="#1E3F78" d="M278.34669921875 184.0 296.48485222876633 98.66669921875H326.29786004126635L308.15970703125004 184.0Z"/><path fill="#1E3F78" d="M330.74680664062504 184.0 349.27610316331993 96.82651367187499Q351.14659260302545 88.026552734375 356.4769768956214 80.826591796875Q361.8073611882174 73.626630859375 369.5950694830233 69.29332519531249Q377.3827777778291 64.96001953125 386.6093988715791 64.96001953125Q392.92936957470414 64.96001953125 397.9629117061461 66.746689453125Q402.9964538375881 68.533359375 406.9312341169675 71.600029296875L394.37412569496104 93.039814453125Q392.4471726466064 92.31978515624999 390.78551485245725 91.919765625Q389.12385705830815 91.51974609375 387.81716760518316 91.51974609375Q385.12381799580817 91.51974609375 383.26357965378304 92.49308105468751Q381.40334131175797 93.466416015625 380.2142246998101 95.359755859375Q379.02510808786224 97.253095703125 378.4356165063323 100.02643554687499L360.58648437500005 184.0H345.73331054687503Q340.32005859375005 184.0 336.57343261718756 184.0Q332.826806640625 184.0 330.74680664062504 184.0ZM331.24913560081876 125.306455078125 336.32210723147705 101.44H394.50857207522705L389.43560044456876 125.306455078125Z"/><path fill="#1E3F78" d="M398.960126953125 184.0 421.68383282832 77.093369140625H451.49684064082004L428.773134765625 184.0ZM397.74014419952977 123.99980468749999 403.1248619943913 98.66669921875H461.89806511939133L456.5133473245298 123.99980468749999Z"/><path fill="#1E3F78" d="M467.386806640625 184.0 485.9161031633199 96.82651367187499Q487.78659260302544 88.026552734375 493.1169768956214 80.826591796875Q498.44736118821737 73.626630859375 506.23506948302327 69.29332519531249Q514.0227777778291 64.96001953125 523.2493988715792 64.96001953125Q529.5693695747041 64.96001953125 534.6029117061461 66.746689453125Q539.6364538375881 68.533359375 543.5712341169675 71.600029296875L531.014125694961 93.039814453125Q529.0871726466064 92.31978515624999 527.4255148524574 91.919765625Q525.7638570583082 91.51974609375 524.4571676051831 91.51974609375Q521.7638179958082 91.51974609375 519.903579653783 92.49308105468751Q518.043341311758 93.466416015625 516.8542246998102 95.359755859375Q515.6651080878622 97.253095703125 515.0756165063323 100.02643554687499L497.22648437500004 184.0H482.373310546875Q476.96005859375003 184.0 473.21343261718755 184.0Q469.466806640625 184.0 467.386806640625 184.0ZM467.88913560081875 125.306455078125 472.96210723147703 101.44H531.1485720752271L526.0756004445687 125.306455078125Z"/><path fill="#1E3F78" d="M528.2666796875001 184.0 553.4333765892306 65.6H583.2463844017307L558.0796875000001 184.0Z"/><path fill="#1E3F78" d="M617.579870438828 185.6Q603.019909501328 185.6 593.6357466446442 179.8800048828125Q584.2515837879604 174.160009765625 580.6163121983636 164.2266845703125Q576.981040608767 154.293359375 579.7187670473293 141.413369140625Q581.770647773149 131.760029296875 586.7051093163764 123.600029296875Q591.6395708596037 115.440029296875 598.7282403077488 109.440029296875Q605.816909755894 103.440029296875 614.4340952781718 100.160029296875Q623.0512808004494 96.880029296875 632.4646108785744 96.880029296875Q641.6912515035743 96.880029296875 648.6397201997529 100.133359375Q655.5881888959315 103.386689453125 659.866015755352 109.29334472656251Q664.1438426147726 115.2 665.368221050692 123.2399853515625Q666.5925994866116 131.279970703125 664.2870707509231 140.74662109375L662.6873529227131 147.5199609375H595.3806537039632L594.8578181717286 132.66666992187498H642.0047517654787L638.4082570563158 135.78666015625L639.054433155288 132.746640625Q639.6999594736525 129.33326171875 638.4849184081927 126.7065576171875Q637.2698773427328 124.07985351562499 634.5415927474268 122.61316406249999Q631.8133081521207 121.14647460937499 627.8399390114957 121.14647460937499Q622.5331909646208 121.14647460937499 618.4235083257423 123.29316894531249Q614.3138256868639 125.43986328125 611.5597270832072 129.42658691406248Q608.8056284795505 133.41331054687498 607.5982885275357 139.0933984375Q606.2662542613349 145.360126953125 607.9515046259172 150.0401708984375Q609.6367549904995 154.72021484375 614.2736412757977 157.30690429687502Q618.9105275610957 159.89359375 626.3772267798457 159.89359375Q631.4172560767207 159.89359375 635.4635417811404 158.5469091796875Q639.5098274855601 157.200224609375 644.4244008986215 154.0268359375L654.0845428489808 173.43998046875Q647.5533337216757 177.946630859375 641.3445211118878 180.559970703125Q635.1357085021001 183.173310546875 629.2511244314015 184.3866552734375Q623.366540360703 185.6 617.579870438828 185.6Z"/><path fill="#1E3F78" d="M707.499870438828 185.6Q692.939909501328 185.6 683.5557466446442 179.8800048828125Q674.1715837879603 174.160009765625 670.5363121983637 164.2266845703125Q666.901040608767 154.293359375 669.6387670473292 141.413369140625Q671.690647773149 131.760029296875 676.6251093163763 123.600029296875Q681.5595708596037 115.440029296875 688.6482403077489 109.440029296875Q695.736909755894 103.440029296875 704.3540952781716 100.160029296875Q712.9712808004493 96.880029296875 722.3846108785743 96.880029296875Q731.6112515035743 96.880029296875 738.5597201997529 100.133359375Q745.5081888959314 103.386689453125 749.786015755352 109.29334472656251Q754.0638426147725 115.2 755.2882210506921 123.2399853515625Q756.5125994866116 131.279970703125 754.2070707509231 140.74662109375L752.6073529227131 147.5199609375H685.3006537039631L684.7778181717285 132.66666992187498H731.9247517654785L728.3282570563158 135.78666015625L728.974433155288 132.746640625Q729.6199594736524 129.33326171875 728.4049184081925 126.7065576171875Q727.1898773427328 124.07985351562499 724.4615927474267 122.61316406249999Q721.7333081521207 121.14647460937499 717.7599390114957 121.14647460937499Q712.4531909646207 121.14647460937499 708.3435083257423 123.29316894531249Q704.2338256868638 125.43986328125 701.4797270832071 129.42658691406248Q698.7256284795504 133.41331054687498 697.5182885275357 139.0933984375Q696.1862542613349 145.360126953125 697.8715046259172 150.0401708984375Q699.5567549904995 154.72021484375 704.1936412757975 157.30690429687502Q708.8305275610957 159.89359375 716.2972267798457 159.89359375Q721.3372560767207 159.89359375 725.3835417811404 158.5469091796875Q729.42982748556 157.200224609375 734.3444008986214 154.0268359375L744.0045428489808 173.43998046875Q737.4733337216757 177.946630859375 731.2645211118879 180.559970703125Q725.0557085021001 183.173310546875 719.1711244314015 184.3866552734375Q713.2865403607029 185.6 707.499870438828 185.6Z"/><path fill="#1E3F78" d="M762.1601269531251 184.0 784.8838328283201 77.093369140625H814.69684064082L791.9731347656251 184.0ZM760.9401441995299 123.99980468749999 766.3248619943913 98.66669921875H825.0980651193913L819.7133473245299 123.99980468749999Z"/><path fill="#1FA3A9" d="M232.87 53.57 L325.88 53.57 A14.53 14.53 0 0 1 319.70 82.64 L226.69 82.64 A14.53 14.53 0 0 1 232.87 53.57 Z"/></svg>