<svg xmlns="http://www.w3.org/2000/svg" viewBox="0 0 256 256"><title>Swift Fleet concept A</title><path d="M79.77 251.29 A50.60 50.60 0 1 0 8.71 180.23 A50.60 50.60 0 0 1 79.77 251.29 Z M97.29 162.71 L89.82 178.27 L69.91 195.69 L63.69 206.27 L64.00 196.00 L53.73 196.31 L64.31 190.09 L81.73 170.18 Z M131.77 199.29 A50.60 50.60 0 1 0 60.71 128.23 A50.60 50.60 0 0 1 131.77 199.29 Z M149.29 110.71 L141.82 126.27 L121.91 143.69 L115.69 154.27 L116.00 144.00 L105.73 144.31 L116.31 138.09 L133.73 118.18 Z M183.77 147.29 A50.60 50.60 0 1 0 112.71 76.23 A50.60 50.60 0 0 1 183.77 147.29 Z M201.29 58.71 L193.82 74.27 L173.91 91.69 L167.69 102.27 L168.00 92.00 L157.73 92.31 L168.31 86.09 L185.73 66.18 Z"/></svg>